# This file uses centimeters as units for non-parametric coordinates.

mtllib VeloHombroIzq.mtl
g default
v -0.106412 -0.219385 -0.046751
v -0.152233 -0.120592 -0.039847
v -0.059735 -0.270746 -0.017903
v 0.071784 -0.008139 -0.017189
v 0.128808 -0.075342 -0.012161
v -0.120797 -0.057810 -0.011927
v -0.076344 -0.010717 -0.011927
v 0.165359 -0.155630 -0.005640
v 0.128753 -0.212656 -0.000548
v 0.000232 0.002802 0.000500
v 0.007842 -0.273348 0.000681
v 0.081981 -0.256296 0.006895
v 0.007842 -0.369390 0.013191
v 0.075256 -0.352339 0.014091
v 0.124408 -0.503889 0.022184
v -0.066678 -0.274095 0.026705
v -0.099347 -0.138395 0.031673
v -0.080003 -0.077738 0.031673
v -0.070539 -0.195017 0.031673
v -0.049787 -0.045729 0.031673
v 0.002262 -0.036539 0.031673
v 0.050895 -0.043974 0.031673
v 0.089652 -0.089659 0.031673
v 0.114497 -0.144224 0.031673
v 0.073563 -0.503889 0.032753
v 0.131450 -0.352339 0.038999
v 0.166049 -0.503889 0.045608
v -0.024587 -0.124464 0.065101
v -0.017159 -0.101171 0.065101
v 0.014431 -0.085352 0.065101
v 0.044787 -0.092707 0.065101
v 0.057529 -0.126703 0.065101
v -0.043332 -0.378229 0.070164
v 0.047240 -0.503889 0.071605
v -0.025684 -0.146208 0.072988
v -0.048215 -0.263830 0.075172
v 0.089808 -0.214910 0.075172
v 0.143689 -0.329069 0.077421
v 0.015872 -0.130144 0.079416
v 0.182300 -0.503889 0.080105
v -0.007001 -0.245222 0.100855
v 0.046000 -0.231413 0.100855
v 0.062881 -0.503889 0.110615
v -0.025151 -0.368120 0.111942
v 0.167840 -0.503889 0.112482
v 0.126706 -0.327600 0.113577
v 0.095565 -0.503889 0.124601
v 0.134513 -0.503889 0.125189
v 0.031356 -0.344698 0.128805
v 0.083556 -0.331095 0.128805
vt 0.744300 -1.795600
vt 0.809100 -1.799500
vt 0.751500 -1.770000
vt 0.698400 -1.787200
vt 0.633000 -1.859900
vt 0.653500 -1.858000
vt 0.638600 -1.835800
vt 0.658000 -1.843400
vt 0.656700 -1.820500
vt 0.670500 -1.840000
vt 0.676900 -1.813200
vt 0.703700 -1.832300
vt 0.748300 -1.823900
vt 0.811500 -1.820500
vt 0.813100 -1.777700
vt 0.751800 -1.747800
vt 0.715100 -1.747800
vt 0.698400 -1.787200
vt 0.807000 -1.747800
vt 0.748300 -1.926000
vt 0.709800 -1.942800
vt 0.753600 -1.958100
vt 0.681100 -1.957400
vt 0.645300 -1.957400
vt 0.709000 -1.957400
vt 0.681100 -1.957400
vt 0.732400 -1.958100
vt 0.759500 -1.986400
vt 0.722600 -1.986400
vt 0.807000 -1.986400
vt 0.803800 -1.958100
vt 0.799600 -1.922200
vt 0.810200 -1.842300
vt 0.748100 -1.846100
vt 0.807800 -1.861000
vt 0.749400 -1.874000
vt 0.804400 -1.887000
vt 0.752300 -1.905400
vt 0.711700 -1.907300
vt 0.682700 -1.912600
vt 0.661500 -1.915700
vt 0.626700 -1.929500
vt 0.641800 -1.906100
vt 0.615800 -1.898100
vt 0.632800 -1.887400
vt 0.615800 -1.857600
vt 0.709000 -1.856000
vt 0.670200 -1.861400
vt 0.656900 -1.875900
vt 0.664400 -1.881700
vt 0.672600 -1.884300
vt 0.710600 -1.884300
vt 0.675800 -1.787200
vt 0.646300 -1.787200
vt 0.626700 -1.816300
vn 0.972773 0.207985 0.102248
vn 0.989650 0.143428 -0.004632
vn 0.712741 0.030009 -0.700785
vn 0.712741 0.030009 -0.700785
vn 0.997046 0.069006 0.033726
vn 0.972773 0.207985 0.102248
vn 0.021827 0.616668 0.786920
vn 0.000276 0.415408 0.909635
vn 0.319425 0.614455 0.721396
vn 0.000276 0.415408 0.909635
vn 0.268930 0.277534 0.922308
vn 0.319425 0.614455 0.721396
vn 0.319425 0.614455 0.721396
vn 0.268930 0.277534 0.922308
vn 0.574934 0.366051 0.731749
vn 0.268930 0.277534 0.922308
vn 0.422863 0.250805 0.870795
vn 0.574934 0.366051 0.731749
vn 0.574934 0.366051 0.731749
vn 0.422863 0.250805 0.870795
vn 0.646832 0.144457 0.748826
vn 0.422863 0.250805 0.870795
vn 0.623816 0.302847 0.720511
vn 0.646832 0.144457 0.748826
vn 0.646832 0.144457 0.748826
vn 0.623816 0.302847 0.720511
vn 0.997046 0.069006 0.033726
vn 0.623816 0.302847 0.720511
vn 0.621949 0.279197 0.731593
vn 0.997046 0.069006 0.033726
vn 0.997046 0.069006 0.033726
vn 0.621949 0.279197 0.731593
vn 0.972773 0.207985 0.102248
vn 0.621949 0.279197 0.731593
vn 0.693154 0.109455 0.712431
vn 0.972773 0.207985 0.102248
vn 0.972773 0.207985 0.102248
vn 0.693154 0.109455 0.712431
vn 0.989650 0.143428 -0.004632
vn 0.989650 0.143428 -0.004632
vn 0.735013 0.117072 -0.667870
vn 0.712741 0.030009 -0.700785
vn 0.712741 0.030009 -0.700785
vn 0.735013 0.117072 -0.667870
vn 0.228746 -0.062127 -0.971502
vn 0.148563 -0.179777 -0.972424
vn 0.712741 0.030009 -0.700785
vn 0.228746 -0.062127 -0.971502
vn 0.148563 -0.179777 -0.972424
vn 0.997046 0.069006 0.033726
vn 0.712741 0.030009 -0.700785
vn 0.000276 0.415408 0.909635
vn 0.422863 0.250805 0.870795
vn 0.268930 0.277534 0.922308
vn 0.228746 -0.062127 -0.971502
vn 0.735013 0.117072 -0.667870
vn 0.184498 0.016469 -0.982695
vn -0.911663 -0.407747 -0.051119
vn -0.923890 -0.343138 0.169362
vn -0.341170 -0.342949 -0.875208
vn -0.341170 -0.342949 -0.875208
vn -0.923890 -0.343138 0.169362
vn -0.877661 -0.467575 0.105286
vn -0.877661 -0.467575 0.105286
vn -0.923890 -0.343138 0.169362
vn -0.829476 -0.106206 0.548352
vn 0.616585 0.208040 -0.759304
vn -0.341170 -0.342949 -0.875208
vn -0.877661 -0.467575 0.105286
vn 0.148563 -0.179777 -0.972424
vn 0.228746 -0.062127 -0.971502
vn 0.215515 0.018175 -0.976331
vn 0.215515 0.018175 -0.976331
vn 0.228746 -0.062127 -0.971502
vn 0.616585 0.208040 -0.759304
vn 0.228746 -0.062127 -0.971502
vn -0.341170 -0.342949 -0.875208
vn 0.616585 0.208040 -0.759304
vn 0.184498 0.016469 -0.982695
vn -0.341170 -0.342949 -0.875208
vn 0.228746 -0.062127 -0.971502
vn -0.471578 -0.120959 -0.873489
vn -0.341170 -0.342949 -0.875208
vn 0.184498 0.016469 -0.982695
vn -0.911663 -0.407747 -0.051119
vn -0.341170 -0.342949 -0.875208
vn -0.471578 -0.120959 -0.873489
vn -0.983684 -0.122600 -0.131666
vn -0.911663 -0.407747 -0.051119
vn -0.471578 -0.120959 -0.873489
vn 0.184180 0.034906 0.982273
vn 0.146170 0.183643 0.972065
vn -0.165673 -0.012188 0.986105
vn 0.146170 0.183643 0.972065
vn -0.163196 0.055774 0.985016
vn -0.165673 -0.012188 0.986105
vn -0.165673 -0.012188 0.986105
vn -0.163196 0.055774 0.985016
vn -0.636201 -0.048857 0.769975
vn -0.163196 0.055774 0.985016
vn -0.639781 -0.173176 0.748793
vn -0.636201 -0.048857 0.769975
vn -0.636201 -0.048857 0.769975
vn -0.639781 -0.173176 0.748793
vn -0.983684 -0.122600 -0.131666
vn -0.639781 -0.173176 0.748793
vn -0.911663 -0.407747 -0.051119
vn -0.983684 -0.122600 -0.131666
vn -0.639781 -0.173176 0.748793
vn -0.789257 0.051981 0.611859
vn -0.911663 -0.407747 -0.051119
vn -0.789257 0.051981 0.611859
vn -0.923890 -0.343138 0.169362
vn -0.911663 -0.407747 -0.051119
vn -0.789257 0.051981 0.611859
vn -0.728216 -0.087194 0.679778
vn -0.923890 -0.343138 0.169362
vn -0.923890 -0.343138 0.169362
vn -0.728216 -0.087194 0.679778
vn -0.829476 -0.106206 0.548352
vn -0.829476 -0.106206 0.548352
vn -0.728216 -0.087194 0.679778
vn -0.685515 -0.106931 0.720163
vn -0.829476 -0.106206 0.548352
vn -0.685515 -0.106931 0.720163
vn -0.657039 0.303433 0.690092
vn -0.657039 0.303433 0.690092
vn -0.685515 -0.106931 0.720163
vn -0.512893 0.308973 0.800922
vn -0.657039 0.303433 0.690092
vn -0.512893 0.308973 0.800922
vn -0.398208 0.581432 0.709484
vn -0.398208 0.581432 0.709484
vn -0.512893 0.308973 0.800922
vn -0.307145 0.520115 0.796958
vn -0.398208 0.581432 0.709484
vn -0.307145 0.520115 0.796958
vn -0.173674 0.652679 0.737461
vn -0.173674 0.652679 0.737461
vn -0.307145 0.520115 0.796958
vn 0.021827 0.616668 0.786920
vn -0.307145 0.520115 0.796958
vn 0.000276 0.415408 0.909635
vn 0.021827 0.616668 0.786920
vn 0.146170 0.183643 0.972065
vn 0.143716 0.288475 0.946640
vn -0.163196 0.055774 0.985016
vn 0.693154 0.109455 0.712431
vn 0.621949 0.279197 0.731593
vn 0.184180 0.034906 0.982273
vn 0.621949 0.279197 0.731593
vn 0.146170 0.183643 0.972065
vn 0.184180 0.034906 0.982273
vn 0.621949 0.279197 0.731593
vn 0.623816 0.302847 0.720511
vn 0.146170 0.183643 0.972065
vn 0.623816 0.302847 0.720511
vn 0.143716 0.288475 0.946640
vn 0.146170 0.183643 0.972065
vn 0.623816 0.302847 0.720511
vn 0.422863 0.250805 0.870795
vn 0.143716 0.288475 0.946640
vn 0.143716 0.288475 0.946640
vn 0.422863 0.250805 0.870795
vn 0.014032 0.252393 0.967523
vn 0.014032 0.252393 0.967523
vn 0.422863 0.250805 0.870795
vn 0.000276 0.415408 0.909635
vn -0.290883 0.254918 0.922174
vn 0.014032 0.252393 0.967523
vn 0.000276 0.415408 0.909635
vn -0.307145 0.520115 0.796958
vn -0.290883 0.254918 0.922174
vn 0.000276 0.415408 0.909635
vn -0.512893 0.308973 0.800922
vn -0.290883 0.254918 0.922174
vn -0.307145 0.520115 0.796958
vn -0.512893 0.308973 0.800922
vn -0.309352 0.249584 0.917611
vn -0.290883 0.254918 0.922174
vn -0.309352 0.249584 0.917611
vn 0.014032 0.252393 0.967523
vn -0.290883 0.254918 0.922174
vn -0.387618 0.170103 0.905990
vn 0.014032 0.252393 0.967523
vn -0.309352 0.249584 0.917611
vn 0.143716 0.288475 0.946640
vn 0.014032 0.252393 0.967523
vn -0.387618 0.170103 0.905990
vn 0.143716 0.288475 0.946640
vn -0.387618 0.170103 0.905990
vn -0.321204 0.198256 0.926025
vn 0.143716 0.288475 0.946640
vn -0.321204 0.198256 0.926025
vn -0.163196 0.055774 0.985016
vn -0.163196 0.055774 0.985016
vn -0.321204 0.198256 0.926025
vn -0.639781 -0.173176 0.748793
vn -0.321204 0.198256 0.926025
vn -0.789257 0.051981 0.611859
vn -0.639781 -0.173176 0.748793
vn -0.321204 0.198256 0.926025
vn -0.387618 0.170103 0.905990
vn -0.789257 0.051981 0.611859
vn -0.387618 0.170103 0.905990
vn -0.728216 -0.087194 0.679778
vn -0.789257 0.051981 0.611859
vn -0.728216 -0.087194 0.679778
vn -0.387618 0.170103 0.905990
vn -0.685515 -0.106931 0.720163
vn -0.685515 -0.106931 0.720163
vn -0.387618 0.170103 0.905990
vn -0.512893 0.308973 0.800922
vn -0.387618 0.170103 0.905990
vn -0.309352 0.249584 0.917611
vn -0.512893 0.308973 0.800922
vn -0.076323 0.146109 0.986320
vn 0.646832 0.144457 0.748826
vn 0.997046 0.069006 0.033726
vn 0.574934 0.366051 0.731749
vn 0.646832 0.144457 0.748826
vn -0.076323 0.146109 0.986320
vn 0.079036 0.149111 0.985657
vn 0.574934 0.366051 0.731749
vn -0.076323 0.146109 0.986320
vn 0.319425 0.614455 0.721396
vn 0.574934 0.366051 0.731749
vn 0.079036 0.149111 0.985657
vn 0.183860 0.216395 0.958837
vn 0.319425 0.614455 0.721396
vn 0.079036 0.149111 0.985657
vn 0.021827 0.616668 0.786920
vn 0.319425 0.614455 0.721396
vn 0.183860 0.216395 0.958837
vn -0.173674 0.652679 0.737461
vn 0.021827 0.616668 0.786920
vn 0.183860 0.216395 0.958837
s off
g VeloHombroIzq:null_
usemtl VeloHombroIzq:phong1SG
f 38/1/1 40/2/2 26/3/3
f 26/3/4 9/4/5 38/1/6
f 21/5/7 30/6/8 22/7/9
f 30/6/10 31/8/11 22/7/12
f 22/7/13 31/8/14 23/9/15
f 31/8/16 32/10/17 23/9/18
f 23/9/19 32/10/20 24/11/21
f 32/10/22 37/12/23 24/11/24
f 24/11/25 37/12/26 9/4/27
f 37/12/28 46/13/29 9/4/30
f 9/4/31 46/13/32 38/1/33
f 46/13/34 45/14/35 38/1/36
f 38/1/37 45/14/38 40/2/39
f 40/2/40 27/15/41 26/3/42
f 26/3/43 27/15/44 14/16/45
f 12/17/46 26/3/47 14/16/48
f 12/17/49 9/18/50 26/3/51
f 30/6/52 32/10/53 31/8/54
f 14/16/55 27/15/56 15/19/57
f 33/20/58 16/21/59 13/22/60
f 13/22/61 16/21/62 1/23/63
f 1/23/64 16/21/65 2/24/66
f 3/25/67 13/22/68 1/26/69
f 12/27/70 14/28/71 11/29/72
f 11/29/73 14/28/74 3/25/75
f 14/28/76 13/22/77 3/25/78
f 15/30/79 13/22/80 14/28/81
f 25/31/82 13/22/83 15/30/84
f 33/20/85 13/22/86 25/31/87
f 34/32/88 33/20/89 25/31/90
f 48/33/91 50/34/92 47/35/93
f 50/34/94 49/36/95 47/35/96
f 47/35/97 49/36/98 43/37/99
f 49/36/100 44/38/101 43/37/102
f 43/37/103 44/38/104 34/32/105
f 44/38/106 33/20/107 34/32/108
f 44/38/109 36/39/110 33/20/111
f 36/39/112 16/21/113 33/20/114
f 36/39/115 19/40/116 16/21/117
f 16/21/118 19/40/119 2/24/120
f 2/24/121 19/40/122 17/41/123
f 2/24/124 17/41/125 6/42/126
f 6/42/127 17/41/128 18/43/129
f 6/42/130 18/43/131 7/44/132
f 7/44/133 18/43/134 20/45/135
f 7/44/136 20/45/137 10/46/138
f 10/46/139 20/45/140 21/5/141
f 20/45/142 30/6/143 21/5/144
f 50/34/145 42/47/146 49/36/147
f 45/14/148 46/13/149 48/33/150
f 46/13/151 50/34/152 48/33/153
f 46/13/154 37/12/155 50/34/156
f 37/12/157 42/47/158 50/34/159
f 37/12/160 32/10/161 42/47/162
f 42/47/163 32/10/164 39/48/165
f 39/48/166 32/10/167 30/6/168
f 29/49/169 39/48/170 30/6/171
f 20/45/172 29/49/173 30/6/174
f 18/43/175 29/49/176 20/45/177
f 18/43/178 28/50/179 29/49/180
f 28/50/181 39/48/182 29/49/183
f 35/51/184 39/48/185 28/50/186
f 42/47/187 39/48/188 35/51/189
f 42/47/190 35/51/191 41/52/192
f 42/47/193 41/52/194 49/36/195
f 49/36/196 41/52/197 44/38/198
f 41/52/199 36/39/200 44/38/201
f 41/52/202 35/51/203 36/39/204
f 35/51/205 19/40/206 36/39/207
f 19/40/208 35/51/209 17/41/210
f 17/41/211 35/51/212 18/43/213
f 35/51/214 28/50/215 18/43/216
f 8/53/217 24/11/218 9/4/219
f 23/9/220 24/11/221 8/53/222
f 5/54/223 23/9/224 8/53/225
f 22/7/226 23/9/227 5/54/228
f 4/55/229 22/7/230 5/54/231
f 21/5/232 22/7/233 4/55/234
f 10/46/235 21/5/236 4/55/237
