# This file uses centimeters as units for non-parametric coordinates.

mtllib VeloHombroDer.mtl
g default
v 0.030934 -0.347614 -0.128340
v 0.083134 -0.334011 -0.128340
v 0.134091 -0.506805 -0.124723
v 0.095143 -0.506805 -0.124136
v 0.126284 -0.330516 -0.113112
v 0.167418 -0.506805 -0.112018
v -0.025573 -0.371036 -0.111477
v 0.062459 -0.506805 -0.110148
v -0.007423 -0.248138 -0.100389
v 0.045578 -0.234329 -0.100389
v 0.181878 -0.506805 -0.079640
v 0.015450 -0.133060 -0.078950
v 0.143267 -0.331985 -0.076955
v -0.048637 -0.266746 -0.074706
v 0.089386 -0.217826 -0.074706
v -0.026107 -0.149124 -0.072523
v 0.046818 -0.506805 -0.071140
v -0.043754 -0.381145 -0.069699
v -0.025009 -0.127380 -0.064637
v -0.017581 -0.104087 -0.064637
v 0.014008 -0.088268 -0.064637
v 0.044365 -0.095623 -0.064637
v 0.057107 -0.129619 -0.064637
v 0.165627 -0.506805 -0.045143
v 0.131028 -0.355255 -0.038534
v 0.073140 -0.506805 -0.032286
v -0.099769 -0.141311 -0.031207
v -0.080425 -0.080654 -0.031207
v -0.070961 -0.197933 -0.031207
v -0.050209 -0.048645 -0.031207
v 0.001839 -0.039455 -0.031207
v 0.050473 -0.046890 -0.031207
v 0.089230 -0.092575 -0.031207
v 0.114075 -0.147140 -0.031207
v -0.067100 -0.277011 -0.026239
v 0.123986 -0.506805 -0.021719
v 0.074833 -0.355255 -0.013626
v 0.007420 -0.372306 -0.012725
v 0.081559 -0.259212 -0.006429
v 0.007420 -0.276264 -0.000215
v -0.000190 -0.000114 -0.000033
v 0.128333 -0.215572 0.001012
v 0.164937 -0.158546 0.006105
v -0.121219 -0.060726 0.012392
v -0.076763 -0.013633 0.012392
v 0.128386 -0.078258 0.012629
v 0.071362 -0.011055 0.017655
v -0.060157 -0.273662 0.018369
v -0.152656 -0.123508 0.040313
v -0.106834 -0.222305 0.047217
vt 0.751500 -1.770000
vt 0.698400 -1.787200
vt 0.715100 -1.747800
vt 0.751800 -1.747800
vt 0.813100 -1.777700
vt 0.807000 -1.747800
vt 0.809100 -1.799500
vt 0.744300 -1.795600
vt 0.698400 -1.787200
vt 0.748300 -1.823900
vt 0.703700 -1.832300
vt 0.748100 -1.846100
vt 0.709000 -1.856000
vt 0.749400 -1.874000
vt 0.807800 -1.861000
vt 0.804400 -1.887000
vt 0.811500 -1.820500
vt 0.810200 -1.842300
vt 0.626700 -1.929500
vt 0.661500 -1.915700
vt 0.645300 -1.957400
vt 0.672600 -1.884300
vt 0.710600 -1.884300
vt 0.711700 -1.907300
vt 0.682700 -1.912600
vt 0.709800 -1.942800
vt 0.681100 -1.957400
vt 0.753600 -1.958100
vt 0.748300 -1.926000
vt 0.752300 -1.905400
vt 0.732400 -1.958100
vt 0.722600 -1.986400
vt 0.759500 -1.986400
vt 0.709000 -1.957400
vt 0.807000 -1.986400
vt 0.803800 -1.958100
vt 0.799600 -1.922200
vt 0.681100 -1.957400
vt 0.676900 -1.813200
vt 0.670500 -1.840000
vt 0.656700 -1.820500
vt 0.658000 -1.843400
vt 0.638600 -1.835800
vt 0.653500 -1.858000
vt 0.633000 -1.859900
vt 0.632800 -1.887400
vt 0.615800 -1.898100
vt 0.641800 -1.906100
vt 0.664400 -1.881700
vt 0.670200 -1.861400
vt 0.656900 -1.875900
vt 0.675800 -1.787200
vt 0.646300 -1.787200
vt 0.626700 -1.816300
vt 0.615800 -1.857600
vn 0.712740 0.030004 0.700786
vn 0.525312 0.097153 -0.845345
vn 0.721962 -0.674290 -0.155252
vn 0.712740 0.030004 0.700786
vn 0.721962 -0.674290 -0.155252
vn 0.228746 -0.062128 0.971502
vn 0.735012 0.117072 0.667871
vn 0.712740 0.030004 0.700786
vn 0.228746 -0.062128 0.971502
vn 0.735012 0.117072 0.667871
vn 0.228746 -0.062128 0.971502
vn 0.184497 0.016468 0.982695
vn 0.989650 0.143429 0.004632
vn 0.712740 0.030004 0.700786
vn 0.735012 0.117072 0.667871
vn 0.989650 0.143429 0.004632
vn 0.972778 0.207966 -0.102240
vn 0.712740 0.030004 0.700786
vn 0.972778 0.207966 -0.102240
vn 0.525312 0.097153 -0.845345
vn 0.712740 0.030004 0.700786
vn 0.972778 0.207966 -0.102240
vn 0.621947 0.279201 -0.731593
vn 0.525312 0.097153 -0.845345
vn 0.621947 0.279201 -0.731593
vn 0.623807 0.302848 -0.720519
vn 0.525312 0.097153 -0.845345
vn 0.146164 0.183640 -0.972066
vn 0.623807 0.302848 -0.720519
vn 0.621947 0.279201 -0.731593
vn 0.143716 0.288473 -0.946641
vn 0.623807 0.302848 -0.720519
vn 0.146164 0.183640 -0.972066
vn -0.163195 0.055774 -0.985016
vn 0.143716 0.288473 -0.946641
vn 0.146164 0.183640 -0.972066
vn -0.163195 0.055774 -0.985016
vn 0.146164 0.183640 -0.972066
vn -0.165673 -0.012188 -0.986105
vn -0.636201 -0.048858 -0.769975
vn -0.163195 0.055774 -0.985016
vn -0.165673 -0.012188 -0.986105
vn 0.693154 0.109455 -0.712430
vn 0.972778 0.207966 -0.102240
vn 0.989650 0.143429 0.004632
vn 0.693154 0.109455 -0.712430
vn 0.621947 0.279201 -0.731593
vn 0.972778 0.207966 -0.102240
vn 0.184179 0.034906 -0.982273
vn 0.621947 0.279201 -0.731593
vn 0.693154 0.109455 -0.712430
vn 0.146164 0.183640 -0.972066
vn 0.621947 0.279201 -0.731593
vn 0.184179 0.034906 -0.982273
vn -0.165673 -0.012188 -0.986105
vn 0.146164 0.183640 -0.972066
vn 0.184179 0.034906 -0.982273
vn -0.484246 0.087733 -0.870522
vn -0.653394 -0.032632 -0.756315
vn -0.672862 -0.221764 -0.705746
vn -0.403035 0.188515 -0.895558
vn -0.321204 0.198256 -0.926025
vn -0.789257 0.051982 -0.611859
vn -0.403035 0.188515 -0.895558
vn -0.789257 0.051982 -0.611859
vn -0.492304 -0.050205 -0.868974
vn -0.653394 -0.032632 -0.756315
vn -0.403035 0.188515 -0.895558
vn -0.492304 -0.050205 -0.868974
vn -0.919642 -0.353958 -0.170212
vn -0.653394 -0.032632 -0.756315
vn -0.492304 -0.050205 -0.868974
vn -0.672862 -0.221764 -0.705746
vn -0.653394 -0.032632 -0.756315
vn -0.919642 -0.353958 -0.170212
vn -0.777674 -0.380019 -0.500809
vn -0.672862 -0.221764 -0.705746
vn -0.919642 -0.353958 -0.170212
vn -0.341170 -0.342949 0.875208
vn -0.777674 -0.380019 -0.500809
vn -0.919642 -0.353958 -0.170212
vn -0.919642 -0.353958 -0.170212
vn -0.911663 -0.407747 0.051120
vn -0.341170 -0.342949 0.875208
vn -0.789257 0.051982 -0.611859
vn -0.911663 -0.407747 0.051120
vn -0.919642 -0.353958 -0.170212
vn -0.789257 0.051982 -0.611859
vn -0.639780 -0.173175 -0.748793
vn -0.911663 -0.407747 0.051120
vn -0.321204 0.198256 -0.926025
vn -0.639780 -0.173175 -0.748793
vn -0.789257 0.051982 -0.611859
vn -0.492304 -0.050205 -0.868974
vn -0.789257 0.051982 -0.611859
vn -0.919642 -0.353958 -0.170212
vn 0.721962 -0.674290 -0.155252
vn -0.043975 -0.972293 0.229593
vn 0.228746 -0.062128 0.971502
vn -0.043975 -0.972293 0.229593
vn 0.497829 -0.855525 0.142278
vn 0.228746 -0.062128 0.971502
vn 0.228746 -0.062128 0.971502
vn 0.497829 -0.855525 0.142278
vn -0.341170 -0.342949 0.875208
vn 0.184497 0.016468 0.982695
vn 0.228746 -0.062128 0.971502
vn -0.341170 -0.342949 0.875208
vn -0.341170 -0.342949 0.875208
vn -0.471579 -0.120959 0.873489
vn 0.184497 0.016468 0.982695
vn -0.911663 -0.407747 0.051120
vn -0.471579 -0.120959 0.873489
vn -0.341170 -0.342949 0.875208
vn -0.911663 -0.407747 0.051120
vn -0.983683 -0.122601 0.131666
vn -0.471579 -0.120959 0.873489
vn -0.639780 -0.173175 -0.748793
vn -0.983683 -0.122601 0.131666
vn -0.911663 -0.407747 0.051120
vn -0.983683 -0.122601 0.131666
vn -0.639780 -0.173175 -0.748793
vn -0.636201 -0.048858 -0.769975
vn -0.639780 -0.173175 -0.748793
vn -0.163195 0.055774 -0.985016
vn -0.636201 -0.048858 -0.769975
vn -0.639780 -0.173175 -0.748793
vn -0.321204 0.198256 -0.926025
vn -0.163195 0.055774 -0.985016
vn -0.321204 0.198256 -0.926025
vn 0.143716 0.288473 -0.946641
vn -0.163195 0.055774 -0.985016
vn 0.143716 0.288473 -0.946641
vn -0.321204 0.198256 -0.926025
vn -0.403035 0.188515 -0.895558
vn 0.497829 -0.855525 0.142278
vn -0.777674 -0.380019 -0.500809
vn -0.341170 -0.342949 0.875208
vn 0.654737 0.159853 -0.738760
vn 0.446440 0.231893 -0.864244
vn 0.583437 0.370077 -0.722941
vn 0.583437 0.370077 -0.722941
vn 0.446440 0.231893 -0.864244
vn 0.329666 0.349237 -0.877128
vn 0.350284 0.580828 -0.734806
vn 0.583437 0.370077 -0.722941
vn 0.329666 0.349237 -0.877128
vn 0.329666 0.349237 -0.877128
vn -0.022522 0.437915 -0.898734
vn 0.350284 0.580828 -0.734806
vn 0.350284 0.580828 -0.734806
vn -0.022522 0.437915 -0.898734
vn -0.032311 0.607655 -0.793543
vn -0.032311 0.607655 -0.793543
vn -0.022522 0.437915 -0.898734
vn -0.291419 0.547493 -0.784427
vn -0.032311 0.607655 -0.793543
vn -0.291419 0.547493 -0.784427
vn -0.201715 0.253716 -0.946012
vn -0.201715 0.253716 -0.946012
vn -0.291419 0.547493 -0.784427
vn -0.484246 0.087733 -0.870522
vn -0.291419 0.547493 -0.784427
vn -0.510474 0.300775 -0.805575
vn -0.484246 0.087733 -0.870522
vn -0.510474 0.300775 -0.805575
vn -0.653394 -0.032632 -0.756315
vn -0.484246 0.087733 -0.870522
vn -0.510474 0.300775 -0.805575
vn -0.373640 0.220140 -0.901073
vn -0.653394 -0.032632 -0.756315
vn -0.373640 0.220140 -0.901073
vn -0.403035 0.188515 -0.895558
vn -0.653394 -0.032632 -0.756315
vn -0.403035 0.188515 -0.895558
vn -0.373640 0.220140 -0.901073
vn -0.004897 0.228784 -0.973465
vn -0.004897 0.228784 -0.973465
vn 0.143716 0.288473 -0.946641
vn -0.403035 0.188515 -0.895558
vn 0.446440 0.231893 -0.864244
vn 0.143716 0.288473 -0.946641
vn -0.004897 0.228784 -0.973465
vn 0.446440 0.231893 -0.864244
vn 0.623807 0.302848 -0.720519
vn 0.143716 0.288473 -0.946641
vn 0.623807 0.302848 -0.720519
vn 0.446440 0.231893 -0.864244
vn 0.654737 0.159853 -0.738760
vn 0.525312 0.097153 -0.845345
vn 0.623807 0.302848 -0.720519
vn 0.654737 0.159853 -0.738760
vn 0.329666 0.349237 -0.877128
vn 0.446440 0.231893 -0.864244
vn -0.004897 0.228784 -0.973465
vn -0.004897 0.228784 -0.973465
vn -0.022522 0.437915 -0.898734
vn 0.329666 0.349237 -0.877128
vn -0.004897 0.228784 -0.973465
vn -0.290883 0.254918 -0.922173
vn -0.022522 0.437915 -0.898734
vn -0.022522 0.437915 -0.898734
vn -0.290883 0.254918 -0.922173
vn -0.291419 0.547493 -0.784427
vn -0.291419 0.547493 -0.784427
vn -0.290883 0.254918 -0.922173
vn -0.510474 0.300775 -0.805575
vn -0.290883 0.254918 -0.922173
vn -0.373640 0.220140 -0.901073
vn -0.510474 0.300775 -0.805575
vn -0.373640 0.220140 -0.901073
vn -0.290883 0.254918 -0.922173
vn -0.004897 0.228784 -0.973465
vn 0.525312 0.097153 -0.845345
vn 0.654737 0.159853 -0.738760
vn 0.169082 0.106774 -0.979801
vn 0.169082 0.106774 -0.979801
vn 0.654737 0.159853 -0.738760
vn 0.336753 0.285966 -0.897118
vn 0.654737 0.159853 -0.738760
vn 0.583437 0.370077 -0.722941
vn 0.336753 0.285966 -0.897118
vn 0.336753 0.285966 -0.897118
vn 0.583437 0.370077 -0.722941
vn 0.292159 0.384628 -0.875617
vn 0.292159 0.384628 -0.875617
vn 0.583437 0.370077 -0.722941
vn 0.350284 0.580828 -0.734806
vn 0.292159 0.384628 -0.875617
vn 0.350284 0.580828 -0.734806
vn 0.055981 0.450149 -0.891197
vn 0.055981 0.450149 -0.891197
vn 0.350284 0.580828 -0.734806
vn -0.032311 0.607655 -0.793543
vn 0.055981 0.450149 -0.891197
vn -0.032311 0.607655 -0.793543
vn -0.201715 0.253716 -0.946012
s off
g VeloHombroDer:null_
usemtl VeloHombroDer:phong1SG
f 25/1/1 42/2/2 39/3/3
f 25/1/4 39/3/5 37/4/6
f 24/5/7 25/1/8 37/4/9
f 24/5/10 37/4/11 36/6/12
f 11/7/13 25/1/14 24/5/15
f 11/7/16 13/8/17 25/1/18
f 13/8/19 42/9/20 25/1/21
f 13/8/22 5/10/23 42/9/24
f 5/10/25 15/11/26 42/9/27
f 2/12/28 15/11/29 5/10/30
f 10/13/31 15/11/32 2/12/33
f 1/14/34 10/13/35 2/12/36
f 1/14/37 2/12/38 4/15/39
f 8/16/40 1/14/41 4/15/42
f 6/17/43 13/8/44 11/7/45
f 6/17/46 5/10/47 13/8/48
f 3/18/49 5/10/50 6/17/51
f 2/12/52 5/10/53 3/18/54
f 4/15/55 2/12/56 3/18/57
f 44/19/58 27/20/59 49/21/60
f 16/22/61 9/23/62 14/24/63
f 16/22/64 14/24/65 29/25/66
f 27/20/67 16/22/68 29/25/69
f 35/26/70 27/20/71 29/25/72
f 49/21/73 27/20/74 35/26/75
f 50/27/76 49/21/77 35/26/78
f 38/28/79 50/27/80 35/26/81
f 35/26/82 18/29/83 38/28/84
f 14/24/85 18/29/86 35/26/87
f 14/24/88 7/30/89 18/29/90
f 9/23/91 7/30/92 14/24/93
f 29/25/94 14/24/95 35/26/96
f 39/31/97 40/32/98 37/33/99
f 40/32/100 48/34/101 37/33/102
f 37/33/103 48/34/104 38/28/105
f 36/35/106 37/33/107 38/28/108
f 38/28/109 26/36/110 36/35/111
f 18/29/112 26/36/113 38/28/114
f 18/29/115 17/37/116 26/36/117
f 7/30/118 17/37/119 18/29/120
f 17/37/121 7/30/122 8/16/123
f 7/30/124 1/14/125 8/16/126
f 7/30/127 9/23/128 1/14/129
f 9/23/130 10/13/131 1/14/132
f 10/13/133 9/23/134 16/22/135
f 48/34/136 50/38/137 38/28/138
f 34/39/139 23/40/140 33/41/141
f 33/41/142 23/40/143 22/42/144
f 32/43/145 33/41/146 22/42/147
f 22/42/148 21/44/149 32/43/150
f 32/43/151 21/44/152 31/45/153
f 31/45/154 21/44/155 30/46/156
f 31/45/157 30/46/158 45/47/159
f 45/47/160 30/46/161 44/19/162
f 30/46/163 28/48/164 44/19/165
f 28/48/166 27/20/167 44/19/168
f 28/48/169 19/49/170 27/20/171
f 19/49/172 16/22/173 27/20/174
f 16/22/175 19/49/176 12/50/177
f 12/50/178 10/13/179 16/22/180
f 23/40/181 10/13/182 12/50/183
f 23/40/184 15/11/185 10/13/186
f 15/11/187 23/40/188 34/39/189
f 42/9/190 15/11/191 34/39/192
f 22/42/193 23/40/194 12/50/195
f 12/50/196 21/44/197 22/42/198
f 12/50/199 20/51/200 21/44/201
f 21/44/202 20/51/203 30/46/204
f 30/46/205 20/51/206 28/48/207
f 20/51/208 19/49/209 28/48/210
f 19/49/211 20/51/212 12/50/213
f 42/9/214 34/39/215 43/52/216
f 43/52/217 34/39/218 46/53/219
f 34/39/220 33/41/221 46/53/222
f 46/53/223 33/41/224 47/54/225
f 47/54/226 33/41/227 32/43/228
f 47/54/229 32/43/230 41/55/231
f 41/55/232 32/43/233 31/45/234
f 41/55/235 31/45/236 45/47/237
